<?xml version="1.0" encoding="UTF-8"?>
<svg id="Capa_2" data-name="Capa 2" xmlns="http://www.w3.org/2000/svg" viewBox="0 0 163.61 153.25">
  <defs>
    <style>
      .cls-1 {
        fill: #9c7eeb;
      }
    </style>
  </defs>
  <g id="Capa_1-2" data-name="Capa 1">
    <path class="cls-1" d="M83.4,153.25c-1.11-12.22-1.94-24.75-3.51-37.2-.72-5.66-2.84-11.16-4.41-16.7-1.2-4.22-3.52-5.17-7.2-2.4-7.66,5.76-15.39,11.42-22.55,16.72,6.08-8.28,12.61-17.18,19.92-27.14-21.4-10.49-43.4-8.83-65.64-10.09,12.53-.84,24.37-1.2,36.09-2.57,7.82-.92,15.6-2.86,23.16-5.13,5.99-1.79,6.21-2.9,2.75-7.97-4.01-5.87-8.49-11.42-12.77-17.09-.95-1.26-1.95-2.47-2.33-4.34,2.62,2.11,5.21,4.26,7.87,6.32,3.27,2.53,6.51,5.13,9.92,7.46,8.44,5.79,9.72,5.7,12.3-4.47,2.47-9.72,3.62-19.8,4.88-29.78,.84-6.71,.86-13.53,1.16-18.88,1.1,11.61,1.98,24.65,3.71,37.57,.75,5.64,3.31,11.03,4.88,16.59,.99,3.49,2.89,3.69,5.47,1.85,7.79-5.59,15.54-11.24,23.13-16.73-6.2,8.39-12.61,17.06-19.44,26.3,20.62,11.82,42.75,7.26,62.86,10.81-9.92,.56-20.51,.94-31.05,1.8-10.68,.87-21.31,2.25-31.26,8.73,6.39,8.9,12.53,17.46,18.88,26.29-8.69-6.41-17.17-12.66-26.46-19.51-10.34,19.63-8.69,40.03-10.32,59.55Z"/>
  </g>
</svg>