<?xml version="1.0" encoding="UTF-8"?>
<svg id="Capa_2" data-name="Capa 2" xmlns="http://www.w3.org/2000/svg" viewBox="0 0 249.66 253.76">
  <defs>
    <style>
      .cls-1 {
        fill: #5325a0;
      }
    </style>
  </defs>
  <g id="Capa_1-2" data-name="Capa 1">
    <g>
      <g id="SvgjsG2522">
        <path class="cls-1" d="M30.41,207.94c2.49,2.92,5.11,5.72,7.87,8.39,9.28,9.13,20.34,16.81,32.22,22.62,4.37,2.05,8.41,4.17,13.13,6,1.18,.45,2.39,.94,3.66,1.38,1.28,.41,2.6,.81,3.99,1.21,1.38,.43,2.85,.74,4.38,1.05,1.54,.31,3.14,.66,4.85,.84-8.51-1.79-16.8-4.49-24.74-8.04-7.99-3.6-15.58-8.03-22.64-13.21-14.16-10.37-26.26-23.69-35.11-38.91-.37-.45-.92-1.32-1.58-2.43l-1.07-1.81-1.08-2.08c-.72-1.44-1.54-2.91-2.17-4.33-.57-1.24-1.16-2.47-1.78-3.69,2.75,6.85,5.92,12.83,9.47,18.53,1.64,2.61,3.37,5.16,5.19,7.65-.26-.35-.53-.69-.78-1.03,1.95,2.69,4.01,5.31,6.17,7.84l.02,.03h0Zm-6.2-7.87l-.17-.23,.17,.23ZM1.79,142.32l-.65-5.2c.34,3.17,.74,6.72,1.47,10.27l-.44-2.52c-.16-.84-.29-1.7-.38-2.55Zm113.37,106.74c8.93,.9,18.29,.63,27.46-.82,9.18-1.45,18.15-4.01,26.49-7.31-15.37,6.04-31.68,8.73-47.63,8.28-2.14-.03-4.24,0-6.32-.15h0Z"/>
        <path class="cls-1" d="M62.31,230.79l-.35-.22c.12,.07,.23,.15,.35,.22Zm12.95,7.14c7.36,3.42,15.06,6.04,22.98,7.81-13-2.97-25.24-8.2-35.93-14.94,4.11,2.61,8.42,5.03,12.95,7.14h0Zm162.29-94.2c.13-2.12,.4-4.35,.46-5.4,.8-6.81,1.03-12.62,1-18.45-.15-1.05-.57-3.02-.74-5.26-.21-2.24-.51-4.44-.76-6.61-.39-2.15-.72-4.28-1.15-6.36,3.05,15.59,3,31.24,.19,46.01,.31-1.32,.64-2.63,.99-3.93h0Z"/>
        <path class="cls-1" d="M1.19,112.04c1.14-9.26,3.56-18.29,5.86-24.3l-.93,4.4c.58-1.29,1.51-4.29,2.77-7.46l.92-2.42,1.01-2.34c.67-1.52,1.23-2.96,1.83-4.06-.41,1.03-.8,2.15-1.27,3.27-.46,1.12-.98,2.26-1.48,3.41l2.03-4.58c-2.05,5.14-3.82,10.38-5.29,15.71-1.52,5.84-2.72,11.98-3.37,17.49-.19,1.37-.25,2.72-.38,4-.09,1.28-.25,2.5-.26,3.66-.06,2.31-.13,4.33-.1,5.94,.14,3.23,.34,4.84,.62,3.94,.55-1.79,.54-10.99,2.47-22.5,1.03-5.74,2.51-12.03,4.51-18.2,1.99-6.17,4.6-12.16,7.3-17.44l-.79,1.73-.73,1.79-1.5,3.61-1.37,3.73-.7,1.88c-.21,.64-.41,1.28-.62,1.92-1.77,5.11-3.1,10.49-4.25,15.91l-.75,4.1c-.28,1.36-.39,2.75-.6,4.12-.43,2.74-.58,5.5-.82,8.23-.27,5.47-.32,10.87,.17,16.03-.02-1.23-.04-2.32-.02-3.37l.15-3.16c.06-1.09,.05-2.24,.15-3.56,.09-1.32,.18-2.81,.25-4.57,.52-8.87,2.11-17.65,4.57-26.15,2.35-8.53,5.12-16.05,9.25-22.86l1.08-2.05c.73-1.37,1.33-2.73,2.1-4.11,.88-1.52,1.72-2.65,2.39-3.69,.7-1.03,1.29-1.93,1.97-2.81l4.94-6.82c.1-.01-.03,.25-.27,.63,.81-1.16,1.69-2.28,2.63-3.34,1.01-1.17,2-2.42,2.83-3.45,.2,0,.39-.01,.84-.34,11.61-12.34,25.9-22.4,42-28.74l3.58-1.39,3.62-1.21,1.8-.6,1.83-.51,3.64-1.01c2.08-.5,4.19-1.01,6.34-1.46l3.27-.57c1.1-.19,2.2-.4,3.33-.51,2.25-.27,4.21-.84,5.26-.98,5.86-.33,11.72-.27,18.59,.29,.53,0,1.36,.06,2.32,.11,.96,.06,2.06,.08,3.13,.18,1.25,.28,2.59,.56,3.99,.83,8.55,1.33,16.81,3.7,24.68,6.85v-.04s3,1.2,3,1.2l3.07,1.42c2.11,.92,4.17,2.09,6.31,3.2,1.07,.55,2.09,1.21,3.14,1.82,1.03,.64,2.12,1.2,3.11,1.9,2.02,1.34,4.08,2.63,5.97,4.07,3.05,2.2,6,4.53,8.86,6.98,.06,.06,.13,.11,.19,.16l.06,.05,1.96,1.77,1.87,1.87,1.87,1.87c.62,.63,1.19,1.3,1.79,1.94-.29-.47-.28-.66-.27-.85-.92-.89-2.02-1.93-3.1-2.97,1.8,1.64,3.38,3.12,4.67,4.33,.5,.64,1.04,1.26,1.56,1.94l1.59,2.1,1.69,2.19,1.68,2.35c2.99,3.81,5.62,7.88,8.13,12.04,1.16,2.13,2.44,4.2,3.47,6.41l1.63,3.27,1.47,3.35c.42,.72,.26,.03,.31-.09,1.64,3.98,2.97,8.11,4.16,12.27,2.29,7.53,3.82,15.27,4.57,23.1,.3,1.85,.43,3.72,.7,5.57l-.17,3.92c0,1.48,.08,2.96,.01,4.44l-.17,4.46c-.02,1.01-.17,2.11-.25,3.3-.11,1.19-.17,2.48-.34,3.83l-.55,4.28c-.18,1.5-.52,3.05-.78,4.66-1.31,7.08-3.25,14.04-5.79,20.78-.32,1.11-.57,1.99-.79,2.49-.84,2.01-1.74,3.96-2.61,5.89-.97,1.87-1.86,3.74-2.85,5.51-3.08,5.83-6.64,11.39-10.67,16.61-.45,.59-.87,1.19-1.32,1.74l-1.34,1.62c-.89,1.05-1.68,2.09-2.52,3-1.68,1.81-3.09,3.5-4.41,4.76-1.51,1.58-1.38,1.65-.33,.89,.74-.54,1.46-1.11,2.16-1.69l2.85-2.57c1.04-.91,2.04-1.93,3-2.9,.95-.97,1.9-1.86,2.63-2.66,1.48-1.6,2.45-2.58,2.24-2.15-2.38,4.49-6.73,10.03-13.08,16.15-3.24,2.99-6.88,6.24-11.19,9.37-2.1,1.64-4.44,3.14-6.82,4.78-2.46,1.51-4.98,3.16-7.73,4.62-6.02,3.28,4.52-1.98,4.8-2.03-1.02,.8-2.08,1.54-3.19,2.2-1.98,1.05-3.95,2.14-6,3.05-1.2,.55-2.38,1.15-3.6,1.66l-3.66,1.51,1.94-.76c3.96-1.57,7.66-3.43,11.01-5.26-1.26,.76-2.63,1.64-4.14,2.43-1.61,.83-3.29,1.75-4.96,2.56l-4.87,2.26c17.4-6.32,33.4-16.79,46.06-30.42,6.34-6.8,11.99-14.27,16.6-22.35,4.64-8.06,8.37-16.61,11.12-25.5-4.23,13.33-10.83,25.57-18.76,35.92,14.42-19.47,23.02-43.34,24.16-67.96,0,1.36-.14,2.71-.23,4.06-.11,1.35-.17,2.71-.32,4.06-.34,2.69-.59,5.4-1.11,8.06-.84,5.37-2.2,10.64-3.73,15.86,3.04-9.42,4.85-19.36,5.56-29.35,.74-10,.12-20.06-1.42-29.81,2.65,12.91,3.09,27.54,.83,42,1.59-9.33,1.99-18.94,1.38-28.47-.14-3.64-.57-7.26-.92-10.6-.51-3.32-.89-6.39-1.38-8.87,1.94,9.16,2.7,16.97,3.08,24.34-.36-16.07-3.69-32.36-10.23-47.66,3.57,8.31,6.5,17.25,8.29,26.44,1.8,9.18,2.55,18.57,2.12,27.61-.02-1.06,.02-2.11-.04-3.18l-.14-3.21c.39,14.56-1.86,28.99-6.3,42.57-2.23,6.79-4.99,13.38-8.32,19.65-3.33,6.26-7.17,12.24-11.49,17.87,4.93-5.76,10.13-13.9,14.29-22.84,4.13-8.96,7.2-18.65,9.32-27.11-3.11,15.2-9.27,30.19-18.21,43.58-8.92,13.4-20.6,25.18-34.12,34.23-13.5,9.07-28.82,15.35-44.54,18.45-7.81,1.55-15.74,2.36-23.7,2.43-7.81,.04-15.61-.64-23.3-2.03l4.03,.77c1.34,.25,2.71,.4,4.06,.6,2.71,.43,5.44,.6,8.17,.85,5.47,.31,10.96,.41,16.44,0,5.49-.29,10.94-1.11,16.37-2.11,2.69-.61,5.42-1.11,8.08-1.9,1.33-.37,2.68-.7,4.01-1.11l3.97-1.29c-2,.62-4.11,1.44-6.36,2.04l-2.82,.83c5.92-1.58,11.71-3.59,17.33-6.03,2.57-1.12,5.1-2.33,7.58-3.63-4.66,2.47-9.46,4.65-14.38,6.54-9.38,3.5-19.14,5.93-29.07,7.22-1.49,.24-2.85,.31-4.07,.44l-3.26,.32c-1.92,.15-3.33,.22-4.32,.33-1.98,.2-2.26,.38-1.47,.53,.79,.15,2.65,.27,4.93,.34,2.28-.01,4.98-.14,7.44-.36,24.69-2.53,47.36-12.22,65.53-26.73,18.18-14.51,32.1-33.78,39.86-55.65,.49-1.27,.86-2.58,1.27-3.88,.39-1.3,.83-2.59,1.18-3.91,.66-2.64,1.44-5.26,1.94-7.94l.83-4.01,.65-4.04,.32-2.02,.23-2.04,.46-4.07c.94-10.89,.57-21.9-1.09-32.7-.89-6.11-2.44-13.37-4.45-19.83l-1.54-4.68c-.54-1.49-1.11-2.89-1.61-4.2l-.75-1.9-.77-1.71-1.32-2.85c-4.21-8.53-9.49-16.67-15.68-24.24-6.18-7.57-13.28-14.59-21.29-20.69l-3.01-2.29-3.12-2.16-1.56-1.08-1.61-1.01-3.24-2.02c-4.42-2.56-8.95-5.02-13.73-7.06-4.73-2.14-9.67-3.89-14.71-5.44-2.54-.7-5.07-1.48-7.68-2.01-1.3-.28-2.59-.62-3.9-.86l-3.95-.7C134.7,.01,124.87-.38,115.05,.36c-9.81,.76-19.67,2.62-29.12,5.84l-3.54,1.23c-1.18,.4-2.32,.92-3.49,1.37-1.15,.48-2.33,.9-3.46,1.43l-3.4,1.57c-1.14,.5-2.25,1.08-3.35,1.67l-3.31,1.74-3.22,1.9c-1.07,.63-2.16,1.25-3.18,1.96l-3.12,2.05c-1.05,.67-2.02,1.45-3.03,2.16-.99,.74-2.03,1.44-2.99,2.22l-2.89,2.33c-.98,.76-1.9,1.58-2.82,2.41l-2.77,2.46-2.65,2.58c-.88,.86-1.77,1.71-2.59,2.62-6.75,7.11-12.68,14.87-17.54,23.08-4.76,8.05-8.66,16.58-11.63,25.45C1.08,103.74-.6,121.33,.18,137.21c-.17-6.54-.2-15.92,1.01-25.17Zm189.41,121.39c4.08-2.64,8.01-5.5,11.76-8.57-3.81,3.14-7.73,6.04-11.76,8.57Zm53.97-72.85c-.4,1.21-.74,2.4-1.18,3.54l-1.28,3.39-.63,1.67-.69,1.65c-.46,1.11-.91,2.23-1.34,3.36-2.48,6.19-5.44,12.18-8.84,17.92-3.38,5.74-7.3,11.11-11.49,16.16-2.07,2.55-4.32,4.91-6.54,7.28l-3.46,3.39c-1.14,1.14-2.38,2.15-3.56,3.23-.99,.86-1.98,1.7-2.99,2.53,3.72-3.06,7.26-6.34,10.6-9.81-4.83,5-10.07,9.58-15.69,13.67-1.39,.97-2.73,2.01-4.18,2.92l-4.36,2.78-4.6,2.62c-1.57,.87-3.22,1.64-4.88,2.49,1.19-.7,2.39-1.37,3.6-2.02,1.37-.76,2.81-1.66,4.21-2.48,1.41-.81,2.7-1.69,3.77-2.43s1.91-1.36,2.34-1.75c-.62,.42-1.26,.83-1.89,1.24,.68-.45,1.35-.9,2.02-1.36-.03,.03-.09,.08-.14,.12,14.67-10.02,27.17-23.19,36.54-38.2,9.41-15,15.53-31.92,18.06-49.12-.55,6.9-1.81,12.41-3.41,17.25h0Zm-20.27-104.75c4.04,6.1,7.53,12.55,10.43,19.26,.34,.74,.65,1.48,.96,2.23,6.66,16.31,9.69,33.81,9.25,51.05,.11-5.7-.27-11.4-.9-17.06-.72-6.51-2.04-12.95-3.79-19.25-3.44-12.62-9.02-24.59-16.11-35.5,.65,.9,1.34,1.87,2.05,2.91,.76,1.07,1.47,2.17,2.13,3.31l-.86-1.49-.92-1.45-1.85-2.89c-1.26-1.91-2.62-3.75-3.94-5.63-1.43-1.79-2.78-3.64-4.26-5.38-1.12-1.28-2.2-2.6-3.34-3.86,4.02,4.23,7.79,8.78,11.14,13.75h0ZM130.03,1.55c1.97,.1,3.94,.3,5.91,.44,1.62,.14,3.22,.37,4.82,.55,.48,.02,.98,.05,1.62,.12,.63,.09,1.39,.25,2.37,.48,7.34,1.22,14.04,3.06,18.79,4.96,9.12,3.45,17.61,7.75,25.31,12.71,7.7,4.95,14.61,10.58,20.46,16.74,2.69,2.92,1.91,2.29,.42,.87l2.23,2.37c-.99-.99-1.96-1.98-2.96-2.95l-3.09-2.8c.75,.66,2.57,2.23,3.82,3.38-9.92-10.12-21.51-18.52-34.06-24.7-12.56-6.18-26.08-9.99-39.59-11.52,2.17,.24,3.24,.3,4.25,.32-1.46-.17-2.92-.4-4.39-.54-1.98-.13-3.97-.31-5.94-.4l-5.85-.14c1.94,0,3.9,.05,5.87,.1h0Z"/>
        <path class="cls-1" d="M155.6,247.87l.57-.17c-.6,.16-1.19,.34-1.79,.49,.41-.1,.82-.2,1.22-.32Zm59.7-51.72c5.68-7.5,10.71-16.46,13.91-24.18h-.04c-8.13,19.23-21.33,35.79-37.79,47.98,2.92-2.03,5.8-4.14,8.61-6.31,3.62-3.78,9.68-9.94,15.31-17.49h0Zm-167.86,22.41c9.63,8.61,21.23,16.09,34.15,21.14,5.04,1.9,10.18,3.56,15.44,4.73,2.61,.67,5.27,1.09,7.92,1.58,1.32,.23,2.67,.37,4,.55,1.33,.17,2.67,.37,4.01,.45-6.06-.67-12.09-1.68-17.95-3.27-5.86-1.59-11.6-3.56-17.14-5.97-5.51-2.45-10.84-5.28-15.96-8.47-5.08-3.23-9.9-6.84-14.47-10.73Zm118.81,15.34l-2.98,1.17-3.04,1.01c-2.01,.72-4.09,1.27-6.16,1.84,2.08-.52,4.18-1.01,6.21-1.68l3.06-.94,2.99-1.09c-.12-.06-.8,.07-.08-.31h0Zm-35.15,7.63c-1.56,.13-3.12,.12-4.69,.14-1.57,.02-3.14,.05-4.71-.05l2.12,.2c.65,.04,1.23,.09,1.74,.15,1.85-.16,3.69-.2,5.55-.44h0Zm-62.06-14.44c1.8,1.06,3.71,1.99,5.61,3.01,.48,.26,1.34,.56,2.42,.95-2.31-.99-4.52-2.22-6.77-3.36-1.11-.59-2.19-1.25-3.28-1.87-1.09-.62-2.18-1.24-3.21-1.94l1.26,.84,1.31,.78,2.66,1.59Z"/>
      </g>
      <g id="SvgjsG2523">
        <path class="cls-1" d="M173.73,159.37c-4.88-3.38-13.09-2.24-18.47-1.06-3.68,.8-7.3,1.85-10.93,2.81-3.94,1.04-5.35,1.58-8.84-.7-5.65-3.69-11.25-7.46-16.86-11.2,9.98-3.46,19.96-6.79,30.1-9.81,4.88-1.45,10.12-3.64,15.17-4.24,3.31-.38,3.52,1.03,5.18,3.54,1.09,1.64,4.67,4.82,5.65,.86,.57-2.31-2.52-4.64-4.13-5.8-6.71-4.86-15.15-1.27-22.28,1.01-9.16,2.93-18.26,6.06-27.39,9.11-2.01,.68-5.12,2.3-7.26,1.9-1.7-.32-3.48-1.8-5.12-2.52-4.11-1.79-8.54-2.69-12.93-3.52-4.42-.83-8.76-1.51-13.25-.68-2.88,.54-8.01,1.51-8.52,4.95-.92,6.18,7.5,10.02,12.39,10.18,4.51,.15,9.29-.85,13.75-1.43,3.82-.5,8.66-1.98,12.52-1.59,3.57,.36,6.96,4.01,9.82,6.1,3.71,2.71,7.42,5.45,11.12,8.17-3.51,1.57-7,3.18-10.53,4.73-3.54,1.55-4.87,1.98-8.36,.39-6.51-2.97-13.41-5.72-20.77-4.32-6.49,1.23-4.36,7.26-.09,9.74,2.79,1.62,3.93,1.6,6.95,1.94,2.96,.34,5.65,2.35,8.73,2.75,3.76,.49,6.36-1.31,9.84-1.47,3.05-.15,5.7,2.53,8.03,4.22,5.63,4.05,11.08,8.07,17.88,9.9,3.01,.81,10.73,3.04,11.45-1.7,.33-2.16-1.15-4.96-3.04-5.86-.96-.45-2.18-.68-3.22-.28-2.21,.83-1.55,1.16-.89,3.31-6.71,0-12.88-3.77-18.24-7.56-1.15-.81-5.73-3.22-5.29-5.04,.41-1.71,6.6-3.58,8-4.24,3.74-1.78,5.5-2.65,9.55-1.54,3.64,1,7.24,2.16,10.87,3.18,6.23,1.76,13.4,2.65,19.28-.99,4.88-3.01,4.73-10.05,.1-13.25Zm-84.16-8.07c-2.93,.12-12.76-1.1-12.56-5.35,.22-4.66,12.03-4.12,15.07-3.84,3.1,.28,6.06,1.15,9.01,2.11,2.39,.77,7.07,1.29,6.92,3.95-6.05,1.16-12.27,2.87-18.43,3.13Zm9.66,23.7c-2.45-.42-8.75-1.03-6.55-4.45,1.97-3.05,7.02-1.33,9.73-.76,2.38,.5,10.21,1.75,9.82,4.28-4.2,1.39-8.64,1.68-13,.93Zm75.4-8.4c-1.44,5.29-10.42,4.76-14.43,4.23-3.04-.41-6.02-1.31-8.96-2.16-1.26-.37-3.49-.52-4.45-1.29-1.11-.9-.88-.54-.84-2.31,6.11-1.57,12.32-3.73,18.61-4.29,3.37-.3,11.5,.53,10.07,5.82Z"/>
      </g>
      <g id="SvgjsG2524">
        <path class="cls-1" d="M94.87,59.38h6.34v53.49h-4.89l-32.4-41.88v41.88h-6.34V59.38h4.89l32.4,41.95V59.38Zm29.57,54.1c-7.72,0-15.21-4.97-15.21-17.27v-23.08h6.27v22.93c0,8.33,4.36,11.92,10.24,11.92,7.11,0,12-6.57,12.99-11.39v-23.46h6.27v39.74h-6.27v-9.25c-.76,2.75-5.58,9.86-14.29,9.86Zm47.53-41.04c7.03,0,12.46,3.9,14.29,8.18v-7.49h6.27v39.74h-6.27v-7.64c-1.83,4.59-7.26,8.41-14.29,8.41-9.02,0-19.95-6.8-19.95-20.63s10.93-20.56,19.95-20.56h0Zm.69,5.58c-6.72,0-14.52,4.97-14.52,14.98s7.79,15.05,14.52,15.05,13.91-4.81,13.91-15.05-7.11-14.98-13.91-14.98h0Z"/>
      </g>
    </g>
  </g>
</svg>