<?xml version="1.0" encoding="UTF-8"?>
<svg id="Capa_2" data-name="Capa 2" xmlns="http://www.w3.org/2000/svg" viewBox="0 0 463.44 475.19">
  <defs>
    <style>
      .cls-1 {
        fill: #5325a0;
      }
    </style>
  </defs>
  <g id="Layer_1" data-name="Layer 1">
    <g>
      <path class="cls-1" d="M210.99,81.96c-7.76-8.79-10.87-17.75-8.57-28.13,4.65-20.94,29.32-30.12,46.41-17.14,2.71,2.06,4.57,2.62,7.3,.47,1.95-1.53,4.18-2.74,6.4-3.88,6.27-3.23,11.07-6.43,11.25-15.23,.2-9.69,9.14-16.87,18.58-17.92,9.59-1.06,18.7,4.17,22.67,13.02,3.74,8.36,1.7,18.66-4.93,24.79-7.41,6.85-17.73,8.22-26.28,2.93-2.79-1.72-4.56-1.48-7.07,.16-4.73,3.1-9.73,5.78-14.5,8.82-1.08,.69-2.56,2.36-2.36,3.22,2.57,10.79-.79,19.94-8.37,28.91,2.98,.2,5.01,.46,7.05,.47,38.65,.06,77.3,.06,115.95,.16,3.46,0,6.95,.44,10.38,.97,1.08,.17,2.34,1.08,2.97,2.01,16.11,24.09,32.11,48.25,48.23,72.34,8.11,12.12,16.41,24.1,24.59,36.17,3.97,5.86,3.72,8.47-1.21,13.39-20.96,20.94-41.9,41.9-62.92,62.78-15.91,15.81-32.03,31.42-47.89,47.28-23.05,23.05-45.93,46.27-68.93,69.38-13.02,13.08-26.13,26.08-39.21,39.11-7.86,7.83-9.36,7.92-17.3,.08-9.82-9.71-19.4-19.65-29.2-29.39-22.06-21.94-44.22-43.76-66.26-65.72C86.28,289.67,44.83,248.27,3.38,206.88c-4.26-4.25-4.43-6.42-.9-11.7,23.62-35.39,47.44-70.66,70.74-106.26,3.67-5.6,7.58-7.1,13.8-7.07,39.15,.23,78.31,.11,117.46,.11,1.78,0,3.56,0,6.5,0Zm21.07,124.8c-17.49,0-34.99,.3-52.47-.14-7.77-.19-11.97,4.76-9.46,12.61,4.98,15.6,9.87,31.22,15.04,46.76,8.95,26.87,18.14,53.67,27.1,80.53,3.72,11.16,7.4,22.34,10.55,33.67,1.44,5.2,3.1,7.7,7.87,7.98,4.61,.27,8.3-2.48,9.69-6.95,4.63-14.86,9.2-29.74,14.04-44.53,12.82-39.17,25.81-78.29,38.65-117.45,2.74-8.36-.35-12.48-9.05-12.49-17.32-.02-34.65,0-51.97,0Zm199.18,9.37c.09-6.59-3.22-9.38-9.76-9.39-34.14-.02-68.29,0-102.43,0-6.38,0-9.39,2.06-11.41,8.21-2.12,6.43-3.85,12.99-6,19.41-9.65,28.87-19.46,57.69-29.07,86.57-5.22,15.71-10.06,31.56-15.25,47.28-2.05,6.21-1.73,9.72,1.86,11.96,3.81,2.37,7.86,1.35,12.32-3.09,7.75-7.74,15.48-15.49,23.25-23.2,23.25-23.07,46.55-46.1,69.77-69.19,21.22-21.11,42.4-42.26,63.51-63.49,1.65-1.66,2.58-4.04,3.22-5.08Zm-223.65,158.4c-.72-3.03-.99-4.66-1.5-6.22-5.76-17.82-11.51-35.65-17.34-53.44-10.88-33.2-21.79-66.4-32.72-99.58-2.1-6.37-5.17-8.52-11.75-8.52-28.66,0-57.32,0-85.98,0-5.67,0-11.39-.47-16.97,.2-2.88,.35-6.37,2.09-8.06,4.34-2.23,2.97-1.14,6.66,1.77,9.41,1.33,1.25,2.51,2.66,3.81,3.95,12.44,12.27,24.95,24.46,37.31,36.8,31.34,31.27,62.6,62.61,93.92,93.9,7.87,7.86,15.64,15.84,23.9,23.29,1.93,1.74,6.04,2.66,8.43,1.85,2.37-.8,3.82-4.27,5.18-5.96Zm24.09-179.88c15.81,0,31.63,.19,47.43-.18,2.86-.07,7.04-1.78,8.13-3.97,1.26-2.53,.93-7.17-.67-9.61-15.35-23.37-31.1-46.48-46.77-69.64-4.72-6.96-11.16-7.28-15.68-.61-15.77,23.29-31.53,46.59-46.94,70.11-1.62,2.48-1.82,6.7-1.06,9.7,.97,3.85,4.92,4.25,8.63,4.23,15.65-.08,31.29-.03,46.94-.04Zm150.59,0c15.99,0,31.99,.19,47.97-.19,2.62-.06,6.58-2.09,7.42-4.2,1.08-2.71,.07-6.56-.86-9.67-.62-2.07-2.8-3.63-4.08-5.55-14.12-21.06-28.17-42.16-42.29-63.22-5.35-7.99-11.31-8.05-16.69-.09-15.47,22.91-30.98,45.81-46.12,68.95-1.6,2.45-1.63,6.66-.91,9.71,.85,3.59,4.45,4.34,8.09,4.32,15.82-.09,31.65-.04,47.47-.05Zm-300.89,.02c15.65,0,31.3-.06,46.95,.04,3.78,.03,7.61-.52,8.57-4.35,.76-3.02,.64-7.24-.98-9.7-15.12-23.12-30.61-46-46.07-68.9-5.4-7.99-11.37-7.95-16.7,.02-15.37,22.99-30.66,46.05-46.09,69.01-2.11,3.14-3.21,6.15-1.46,9.7,1.82,3.71,5.13,4.21,8.82,4.2,15.65-.06,31.3-.03,46.95-.02Zm75.28-100.6c-14.5,0-28.99-.03-43.49,.03-2.13,0-4.32,.24-6.37,.77-6.19,1.6-8.28,7.53-4.7,12.81,15.53,22.89,31.07,45.78,46.57,68.68,4.99,7.37,10.74,7.71,15.69,.46,15.76-23.12,31.4-46.33,46.99-69.56,3.5-5.22,1.22-10.88-4.83-12.38-2.06-.51-4.24-.77-6.37-.78-14.5-.07-28.99-.03-43.49-.04Zm150.41,0c-14.5,0-28.99-.03-43.49,.03-2.13,0-4.31,.26-6.37,.76-6.14,1.5-8.56,7.07-5.09,12.25,15.76,23.53,31.59,47.02,47.56,70.41,4.34,6.35,10.52,5.95,14.92-.57,15.69-23.19,31.36-46.38,47.02-69.58,3.4-5.03,1.22-10.9-4.7-12.48-2.05-.55-4.24-.79-6.37-.79-14.5-.07-28.99-.03-43.49-.03Zm-91.29-34.33c-.22,8.54,6.59,15.71,15.14,15.94,8.35,.22,15.66-6.9,15.78-15.36,.12-8.3-6.65-15.34-14.95-15.52-8.79-.2-15.75,6.32-15.97,14.95Zm79.01-29.75c4.35,.07,7.98-3.45,8.04-7.8,.06-4.41-3.43-8.07-7.71-8.09-4.29-.02-8.06,3.58-8.14,7.79-.08,4.25,3.57,8.03,7.81,8.1Z"/>
      <path class="cls-1" d="M325.07,436c-6.09,3.66-12.35,7.13-18.22,11.18-1.4,.96-2.02,3.83-2.06,5.84-.27,12.63-10.58,22.78-22.78,22.15-12.98-.67-22.33-11.27-21.21-24.01,1.4-15.83,18.87-25,32.74-16.93,2.91,1.69,4.83,1.69,7.5-.11,4.41-2.96,9.03-5.64,13.68-8.22,2.52-1.4,3.47-2.85,2.79-5.93-1.83-8.28,.23-15.98,5.48-22.46,2.41-2.98,2.19-4.84,.22-7.71-2.91-4.24-5.42-8.76-7.93-13.25-2.32-4.16-1.46-7.81,2.08-9.95,3.52-2.13,7.23-1.18,9.81,2.81,2.8,4.32,5.51,8.72,7.95,13.25,1.62,3.01,3.33,4.08,7.03,3.44,12.84-2.22,25.13,4.47,30.82,16.22,5.54,11.43,3.09,25.07-6.08,33.96-9.06,8.78-23.2,10.85-34.22,4.88-2.46-1.33-4.67-3.14-7.61-5.15Zm21.2-5.55c8.76,.03,15.54-6.65,15.57-15.35,.03-8.52-7.06-15.63-15.52-15.55-8.4,.07-15.51,7.34-15.41,15.76,.1,8.29,7.02,15.12,15.36,15.14Zm-63.62,30.68c4.31-.05,7.99-3.7,7.99-7.92,0-4.29-3.67-7.97-7.94-7.96-4.34,0-7.92,3.59-7.91,7.94,0,4.37,3.59,8,7.86,7.95Z"/>
    </g>
  </g>
</svg>